<?xml version="1.0" encoding="utf-8"?>
<!-- Generated by IcoMoon.io -->
<!DOCTYPE svg PUBLIC "-//W3C//DTD SVG 1.1//EN" "http://www.w3.org/Graphics/SVG/1.1/DTD/svg11.dtd">
<svg version="1.1" xmlns="http://www.w3.org/2000/svg" xmlns:xlink="http://www.w3.org/1999/xlink" width="24" height="24" viewBox="0 0 24 24">
<path fill="#444444" d="M22 4v2h-4v-4h2v-2h-4v2h-2v6h-2v2h-2v2h-2v2h-6v2h-2v4h2v-2h4v4h-2v2h4v-2h2v-6h2v-2h2v-2h2v-2h6v-2h2v-4z"></path>
<path fill="#444444" d="M10 6v4h-4v-2h-2v-2h-2v-2h-2v-4h4v2h2v2h2v2h2zM22 24v-2h2v-4h-2v-2h-2v-2h-2v-2h-2v2h-2v2h-2v2h2v2h2v2h2v2h4z"></path>
</svg>
