<?xml version="1.0" encoding="UTF-8" standalone="no"?> <svg xmlns="http://www.w3.org/2000/svg" viewBox="0 0 64 64"><title>1</title><g id="Layer_6" data-name="Layer 6"><path d="M58.48,31.3c-2.35-2.35-7.77-5.92-12.62-8.32l-1.06-.5a16,16,0,0,0-3.58-4.88,9.31,9.31,0,0,0-1.33-6.79L42.71,8a2,2,0,0,0-2.83-2.83L37.06,8A9.32,9.32,0,0,0,26.94,8L24.12,5.16A2,2,0,0,0,21.29,8l2.81,2.81a9.31,9.31,0,0,0-1.33,6.79,16,16,0,0,0-3.58,4.88L18.14,23c-4.84,2.39-10.27,6-12.62,8.32A12,12,0,0,0,22.45,48.36c.42.8.87,1.58,1.36,2.33v0h0c1.65,2.54,3.7,4.68,6.17,5.46v1.23a2,2,0,0,0,4,0V56.19c2.47-.78,4.53-2.93,6.17-5.47h0c.49-.76.95-1.54,1.37-2.34A12,12,0,0,0,58.48,31.3ZM37.79,46.9a13.73,13.73,0,0,0-11.58,0q-.5-.92-1-2A64.89,64.89,0,0,0,32,33.16a64.89,64.89,0,0,0,6.78,11.78C38.46,45.63,38.13,46.29,37.79,46.9ZM32.41,20.58a2,2,0,0,0-.71.08c-1.38-.87-3.28-1.07-5.73-.58a9.34,9.34,0,0,1,12,0C35.65,19.6,33.78,19.77,32.41,20.58ZM32,10.48A5.38,5.38,0,0,1,37.3,15a12.9,12.9,0,0,0-10.6,0A5.38,5.38,0,0,1,32,10.48Zm-23.65,35a8,8,0,0,1,0-11.34,53.44,53.44,0,0,1,11.56-7.56c4.43-2.19,7.08-2.75,8.5-2.75h.23L17.08,37.78l12.79-10.6c-1,4.3-5,11.71-8.3,16.09a2,2,0,0,0-.35.45,20.44,20.44,0,0,1-1.52,1.74A8,8,0,0,1,8.35,45.47Zm23.65,7c-1.07,0-2.28-.79-3.5-2.2a10,10,0,0,1,7,0C34.28,51.72,33.07,52.51,32,52.51Zm23.65-7a8,8,0,0,1-11.34,0,20.46,20.46,0,0,1-1.52-1.74,2,2,0,0,0-.35-.45c-3.63-4.75-8-13.06-8.48-17.11L48,37.78,36.45,23.88a25.08,25.08,0,0,1,7.64,2.68,53.42,53.42,0,0,1,11.56,7.56A8,8,0,0,1,55.65,45.47Z"/></g></svg>